# xmcd
#
# Track frame offsets:
#	150
#	11755
#	25040
#	37345
#	47887
#	59405
#	72367
#	82172
#	92687
#	101360
#	111337
#	122702
#	135820
#	148592
#	162335
#	172710
#	182725
#	195582
#	210382
#	221025
#	230390
#	241610
#	257895
#	272980
#	287325
#	299140
#	312397
#	326887
#
# Disc length: 4539 seconds
# Revision: 0
# Processed by: cddbd v1.5.2PL0 Copyright (c) Steve Scherf et al.
# Submitted via: dBpowerAMP V12.0
#
DISCID=a411b91c
DTITLE=Kelly Brothers, The - Sanctified Southern Soul
DYEAR=1996
DGENRE=Soul
TTITLE0=Falling in Love Again
TTITLE1=You're That Great Big Feelin'
TTITLE2=My Love Grows Stronger
TTITLE3=I've Got my Baby (And That's Enough)
TTITLE4=Make me Glad
TTITLE5=I'd Rather Have You
TTITLE6=Counting on You
TTITLE7=Time Has Made me Change
TTITLE8=Got The Feeling
TTITLE9=You're The Most
TTITLE10=Love Time
TTITLE11=Can't Stand it no Longer
TTITLE12=If That Will Hold You
TTITLE13=How Can True Love be This Way
TTITLE14=Ouch, oh Baby
TTITLE15=I'll be Right There
TTITLE16=Just Walk on
TTITLE17=You Put Your Touch on me
TTITLE18=Hanging in Here
TTITLE19=That's What You Mean to me
TTITLE20=Comin' on in
TTITLE21=That's How I am
TTITLE22=I Got This Feeling
TTITLE23=Stop These Tears
TTITLE24=Haven't I Been Good to You
TTITLE25=If it Wasn't For Your Love
TTITLE26=It Takes You
TTITLE27=My Baby Loves me
EXTD=
EXTT0=
EXTT1=
EXTT2=
EXTT3=
EXTT4=
EXTT5=
EXTT6=
EXTT7=
EXTT8=
EXTT9=
EXTT10=
EXTT11=
EXTT12=
EXTT13=
EXTT14=
EXTT15=
EXTT16=
EXTT17=
EXTT18=
EXTT19=
EXTT20=
EXTT21=
EXTT22=
EXTT23=
EXTT24=
EXTT25=
EXTT26=
EXTT27=
PLAYORDER=
